<svg width="24" height="24" viewBox="0 0 24 24" fill="none" xmlns="http://www.w3.org/2000/svg">
  <path d="M10.75 2.75H13.25L13.78 5.08C14.32 5.24 14.84 5.45 15.33 5.72L17.37 4.43L19.57 6.63L18.28 8.67C18.55 9.16 18.76 9.68 18.92 10.22L21.25 10.75V13.25L18.92 13.78C18.76 14.32 18.55 14.84 18.28 15.33L19.57 17.37L17.37 19.57L15.33 18.28C14.84 18.55 14.32 18.76 13.78 18.92L13.25 21.25H10.75L10.22 18.92C9.68 18.76 9.16 18.55 8.67 18.28L6.63 19.57L4.43 17.37L5.72 15.33C5.45 14.84 5.24 14.32 5.08 13.78L2.75 13.25V10.75L5.08 10.22C5.24 9.68 5.45 9.16 5.72 8.67L4.43 6.63L6.63 4.43L8.67 5.72C9.16 5.45 9.68 5.24 10.22 5.08L10.75 2.75Z" stroke="#F5F2FF" stroke-width="1.65" stroke-linejoin="round"/>
  <circle cx="12" cy="12" r="3.1" stroke="#F5F2FF" stroke-width="1.65"/>
</svg>
